<svg width="16" height="16" viewBox="0 0 16 16" xmlns="http://www.w3.org/2000/svg" xmlns:xlink="http://www.w3.org/1999/xlink"><title>CB15047A-3D54-4294-B576-194178F416DB</title><defs><path id="a" d="M30 375h1280v2308H30z"/><mask id="b" x="0" y="0" width="1280" height="2308" fill="#fff"><use xlink:href="#a"/></mask></defs><g transform="translate(-93 -696)" fill="none" fill-rule="evenodd"><path d="M0 27h1366v1597H0V27z" fill="#F0F0F0"/><use stroke="#CDCDCD" mask="url(#b)" stroke-width="2" fill="#FFF" xlink:href="#a"/><path d="M106.379 698.323a7.77 7.77 0 0 0-11.081 0c-3.064 3.096-3.064 8.103 0 11.2a7.77 7.77 0 0 0 11.08 0c3.065-3.097 3.065-8.12 0-11.2z" fill="#AA1A33" fill-rule="nonzero"/><path d="M105.494 704.946a3.43 3.43 0 0 1-.324.379h-8.885a3.43 3.43 0 0 0-.323-.379v-2.322c.119-.155.187-.241.323-.379h8.902c.12.155.187.241.324.379v2.322h-.017z" fill="#FFF"/></g></svg>