<svg xmlns="http://www.w3.org/2000/svg" xmlns:xlink="http://www.w3.org/1999/xlink" version="1.1" x="0px" y="0px" viewBox="0 0 100 100" style="enable-background:new 0 0 100 100;" xml:space="preserve"><path d="M93,42H83c-0.8-3.5-2.2-6.7-4-9.7l7-7c0-1.1,0-1.7,0-2.8l-8.5-8.5c-1.1,0-1.7,0-2.8,0l-7,7c-3-1.8-6.2-3.2-9.7-4V7  c-0.8-0.8-1.2-1.2-2-2H44c-0.8,0.8-1.2,1.2-2,2v10c-3.5,0.8-6.7,2.2-9.7,4l-7-7c-1.1,0-1.7,0-2.8,0l-8.5,8.5c0,1.1,0,1.7,0,2.8l7,7  c-1.8,3-3.2,6.2-4,9.7H7c-0.8,0.8-1.2,1.2-2,2v12c0.8,0.8,1.2,1.2,2,2h10c0.8,3.5,2.2,6.7,4,9.7l-7,7c0,1.1,0,1.7,0,2.8l8.5,8.5  c1.1,0,1.7,0,2.8,0l7-7c3,1.8,6.2,3.2,9.7,4v10c0.8,0.8,1.2,1.2,2,2h12c0.8-0.8,1.2-1.2,2-2V83c3.5-0.8,6.7-2.2,9.7-4l7,7  c1.1,0,1.7,0,2.8,0l8.5-8.5c0-1.1,0-1.7,0-2.8l-7-7c1.8-3,3.2-6.2,4-9.7h10c0.8-0.8,1.2-1.2,2-2V44C94.2,43.2,93.8,42.8,93,42z   M50,62c-6.6,0-12-5.4-12-12c0-6.6,5.4-12,12-12s12,5.4,12,12C62,56.6,56.6,62,50,62z"></path></svg>