<?xml version="1.0" encoding="utf-8"?>
<!-- Generator: Adobe Illustrator 19.0.0, SVG Export Plug-In . SVG Version: 6.00 Build 0)  -->
<svg version="1.1" id="Layer_1" xmlns="http://www.w3.org/2000/svg" xmlns:xlink="http://www.w3.org/1999/xlink" x="0px" y="0px"
	 viewBox="-117 118.5 48 48" style="enable-background:new -117 118.5 48 48;" xml:space="preserve">
<style type="text/css">
	.st0{fill:#0A2F5D;}
</style>
<path class="st0" d="M-103,153.6h8.5c0.1,0,0.1-0.1,0.1-0.1c0.1-0.6,0.3-1.1,0.7-1.6c0.1-0.1,0.3-0.2,0.3-0.3
	c0.1-0.1,0.1-0.1,0.1-0.3l1-9.6c0-0.3,0.4-0.3,0.4,0l1,9.6c0,0.1,0.1,0.2,0.1,0.3c0.1,0.1,0.3,0.2,0.3,0.3c0.4,0.5,0.6,1,0.7,1.6
	c0,0.1,0.1,0.1,0.1,0.1h8.2c0.1,0,0.8,0,1.3,0c0.3,0,0.6-0.2,0.7-0.4c0.1-0.3,0.3-0.5,0.3-0.5c1.5-2.8,2.3-6.2,1.9-9.8
	c-0.9-7-6.4-12.5-13.2-13.3c-9-1.1-16.7,6.3-16.7,15.4c0,2.7,0.7,5.3,1.9,7.5c0,0,0.1,0.3,0.3,0.5c0.2,0.4,0.6,0.6,1,0.6
	C-103.4,153.6-103,153.6-103,153.6z M-80,143.1c0.5-0.1,1,0.2,1.2,0.7c0.1,0.5-0.2,1.1-0.7,1.2l-3.7,0.9c-0.1,0-0.1,0-0.2,0
	c-0.4,0-0.8-0.3-1-0.8c-0.1-0.5,0.2-1.1,0.7-1.2L-80,143.1z M-86.7,138l2.7-2.8c0.4-0.4,1-0.4,1.3,0c0.4,0.4,0.4,1,0,1.4l-2.7,2.8
	c-0.2,0.2-0.4,0.3-0.7,0.3c-0.3,0-0.5-0.1-0.7-0.3C-87.1,139-87.1,138.4-86.7,138z M-93,132.2c0-0.5,0.4-1,1-1s1,0.5,1,1v3.9
	c0,0.5-0.4,1-1,1s-1-0.5-1-1V132.2z M-101.4,135.2c0.4-0.4,1-0.4,1.3,0l2.7,2.8c0.4,0.4,0.4,1,0,1.4c-0.2,0.2-0.4,0.3-0.7,0.3
	s-0.5-0.1-0.7-0.3l-2.7-2.8C-101.8,136.2-101.8,135.6-101.4,135.2z M-105.3,143.7c0.1-0.5,0.6-0.9,1.2-0.7l3.6,0.9
	c0.5,0.1,0.8,0.7,0.7,1.2c-0.1,0.5-0.5,0.7-1,0.7c-0.1,0-0.1,0-0.3,0l-3.6-0.9C-105.1,144.8-105.4,144.2-105.3,143.7z"/>
</svg>
