<?xml version="1.0" encoding="utf-8"?>
<!-- Generator: Adobe Illustrator 19.0.0, SVG Export Plug-In . SVG Version: 6.00 Build 0)  -->
<svg version="1.1" id="Layer_1" xmlns="http://www.w3.org/2000/svg" xmlns:xlink="http://www.w3.org/1999/xlink" x="0px" y="0px"
	 viewBox="-117 118.5 48 48" style="enable-background:new -117 118.5 48 48;" xml:space="preserve">
<style type="text/css">
	.st0{fill:#0A2F5D;}
</style>
<title>Png 48px Solid - 70 Basic Icons</title>
<g>
	<path class="st0" d="M-77.9,128.5L-77.9,128.5L-78,123c0-2.5-1.9-4.5-4.4-4.5h-0.1h-20.8c-2.5-0.1-4.6,2-4.7,4.5v5.5
		c-4.3-0.1-7.8,3.3-8,7.6v19.5c0.1,1.7,1.5,3,3.1,2.9h6.9v3.5c0,2.5,2.1,4.5,4.5,4.5h16.9c2.5,0,4.5-2,4.5-4.5v-3.5h7.1
		c1.6,0,2.9-1.3,2.9-2.9c0,0,0,0,0-0.1v-19.4C-70.1,131.9-73.6,128.5-77.9,128.5C-77.8,128.5-77.8,128.5-77.9,128.5z M-109,138.5
		c-1.1,0-2-0.9-2-2s0.9-2,2-2s2,0.9,2,2S-107.9,138.5-109,138.5z M-105,136.5c0-1.1,0.9-2,2-2s2,0.9,2,2s-0.9,2-2,2
		S-105,137.6-105,136.5z M-84,162c0,0.3-0.3,0.5-0.5,0.5h-17c-0.3,0-0.5-0.2-0.5-0.5v-13c0-0.3,0.3-0.5,0.5-0.5h16.9
		c0.3,0,0.5,0.2,0.5,0.5L-84,162L-84,162z M-82,128.5h-22V123c0.1-0.3,0.4-0.5,0.7-0.5h20.8c0.3,0,0.5,0.2,0.5,0.4v0.1V128.5z"/>
</g>
</svg>
