<?xml version="1.0" encoding="utf-8"?>
<!-- Generator: Adobe Illustrator 19.0.0, SVG Export Plug-In . SVG Version: 6.00 Build 0)  -->
<svg version="1.1" id="Layer_1" xmlns="http://www.w3.org/2000/svg" xmlns:xlink="http://www.w3.org/1999/xlink" x="0px" y="0px"
	 viewBox="-91 92.5 100 100" style="enable-background:new -91 92.5 100 100;" xml:space="preserve">
<style type="text/css">
	.st0{display:none;fill:none;stroke:#2B397B;stroke-width:12;stroke-miterlimit:10;}
	.st1{fill:#0A2F5D;}
</style>
<path class="st0" d="M-80.5,148.2l41.2-41.2c8.7-8.7,22.7-8.7,31.4,0s8.7,22.7,0,31.4l-41.8,41.7c-5.8,5.8-15.2,5.8-21,0
	c-5.8-5.8-5.8-15.2,0-21l32.6-32.6c3.1-3.1,8-3.1,11.1,0c3,3,3,8,0,11l-22,22"/>
<g>
	<g>
		<path class="st1" d="M-18.6,164.9v8h-52.8v-52.8h8c1.4-1.4,2.2-2.2,3.6-3.6v-11H-86v82h82v-26.2h-10.9
			C-16.4,162.7-17.2,163.5-18.6,164.9z M-42.3,97.5c-1.4,3.3-1.5,3.5-2.8,6.8l12,12l-25.4,25.3v5.7l12.7,12.7h5.7l25.3-25.3l12,12
			c3.3-1.4,3.5-1.5,6.8-2.8V97.5H-42.3z"/>
	</g>
</g>
</svg>
