<?xml version="1.0" encoding="utf-8"?>
<!-- Generator: Adobe Illustrator 19.0.0, SVG Export Plug-In . SVG Version: 6.00 Build 0)  -->
<svg version="1.1" id="Layer_1" xmlns="http://www.w3.org/2000/svg" xmlns:xlink="http://www.w3.org/1999/xlink" x="0px" y="0px"
	 viewBox="-91 92.5 100 100" style="enable-background:new -91 92.5 100 100;" xml:space="preserve">
<style type="text/css">
	.st0{fill:#F2BE2C;}
</style>
<path class="st0" d="M-12.5,141.3l-0.7-0.7c-1.4-1.3-3.6-1.5-5.1-0.3l-20.4-19.7c1.1-1.5,1.1-3.6-0.3-4.9l-0.7-0.7
	c-1.5-1.5-4-1.5-5.5,0l-11.9,11.5c-1.5,1.5-1.5,3.8,0,5.3l0.7,0.7c1.5,1.5,4,1.5,5.5,0l0.4-0.4l6.5,6.3l-25.1,24.2c-2,2-2,5.2,0,7.1
	c2,2,5.3,2,7.3,0l25.1-24.2l6.5,6.3l-0.4,0.4c-1.5,1.5-1.5,3.8,0,5.3l0.7,0.7c1.5,1.5,4,1.5,5.5,0l11.9-11.5
	C-11,145.1-11,142.7-12.5,141.3z"/>
<text transform="matrix(1 0 0 1 50.73 234.19)" style="font-family:'MyriadPro-Regular'; font-size:12px;">noun_64138_rule</text>
</svg>
