<svg width="20" height="18" viewBox="0 0 20 18" xmlns="http://www.w3.org/2000/svg"><title>A71C7FCC-1F32-4CAB-8377-EC28662E579E</title><g fill="none" fill-rule="evenodd"><path fill="#0A2F5D" d="M-18-11H82v40H-18z"/><path d="M5.274.638a5.248 5.248 0 0 0-3.73 1.556 5.316 5.316 0 0 0 0 7.49l7.965 8.03a.682.682 0 0 0 .967 0c2.659-2.673 5.32-5.343 7.98-8.016a5.322 5.322 0 0 0 0-7.497 5.269 5.269 0 0 0-7.469 0l-.98.995-.995-1.002A5.264 5.264 0 0 0 5.274.638zm0 1.35c.998 0 2 .39 2.771 1.165L9.523 4.64a.682.682 0 0 0 .967 0l1.464-1.478a3.876 3.876 0 0 1 5.535 0 3.932 3.932 0 0 1 0 5.57c-2.498 2.512-4.998 5.03-7.497 7.54L2.51 8.725a3.933 3.933 0 0 1 0-5.572 3.888 3.888 0 0 1 2.764-1.165z" fill-rule="nonzero" fill="#FFF"/></g></svg>