<?xml version="1.0" encoding="utf-8"?>
<!-- Generator: Adobe Illustrator 19.0.0, SVG Export Plug-In . SVG Version: 6.00 Build 0)  -->
<svg version="1.1" id="Layer_1" xmlns="http://www.w3.org/2000/svg" xmlns:xlink="http://www.w3.org/1999/xlink" x="0px" y="0px"
	 viewBox="-91 92.5 100 100" style="enable-background:new -91 92.5 100 100;" xml:space="preserve">
<style type="text/css">
	.st0{fill:#002C5F;}
</style>
<g>
	<path class="st0" d="M-8.6,166.1l-17.6-14c3.2-4.3,5.2-9.7,5.2-15.6c0-14.3-11.7-26-26-26s-26,11.7-26,26c0,14.3,11.7,26,26,26
		c5.9,0,11.3-2,15.6-5.2l14,17.6c3.4,3.6,7.6,2.7,9.7,0C-5.5,172.2-5,169.5-8.6,166.1z M-47,154.5c-9.9,0-18-8.1-18-18
		c0-9.9,8.1-18,18-18s18,8.1,18,18C-29,146.4-37.1,154.5-47,154.5z"/>
</g>
</svg>
