<svg xmlns="http://www.w3.org/2000/svg" xmlns:xlink="http://www.w3.org/1999/xlink" version="1.1" x="0px" y="0px" viewBox="0 0 100 100" enable-background="new 0 0 100 100" xml:space="preserve"><circle cx="50" cy="85.549" r="9.451"></circle><path d="M50,5C34.498,5,21.886,17.612,21.886,33.116c0,0.565,0.458,1.022,1.023,1.022h15.283c0.565,0,1.023-0.457,1.023-1.022  c0-5.953,4.838-10.796,10.784-10.796c5.946,0,10.785,4.843,10.785,10.796c0,2.875-1.121,5.579-3.175,7.632  c-0.24,0.253-0.822,0.724-1.385,1.178L55.9,42.188c-5.09,4.124-14.563,11.8-14.563,28.357c0,0.564,0.457,1.021,1.022,1.021h15.275  c0.565,0,1.022-0.457,1.022-1.021c0-8.309,4.142-11.648,8.225-14.941c1.066-0.871,2.075-1.693,2.99-2.612  c5.313-5.313,8.239-12.371,8.239-19.874C78.113,17.612,65.502,5,50,5z"></path></svg>