<svg width="18" height="18" viewBox="0 0 18 18" xmlns="http://www.w3.org/2000/svg" xmlns:xlink="http://www.w3.org/1999/xlink"><title>12968AF9-5D24-4291-95AB-2381AC287674</title><defs><rect id="a" width="40" height="1300" rx="3"/><filter x="-50%" y="-50%" width="200%" height="200%" filterUnits="objectBoundingBox" id="b"><feOffset dy="1" in="SourceAlpha" result="shadowOffsetOuter1"/><feGaussianBlur stdDeviation="1.5" in="shadowOffsetOuter1" result="shadowBlurOuter1"/><feComposite in="shadowBlurOuter1" in2="SourceAlpha" operator="out" result="shadowBlurOuter1"/><feColorMatrix values="0 0 0 0 0.784313725 0 0 0 0 0.784313725 0 0 0 0 0.784313725 0 0 0 1 0" in="shadowBlurOuter1"/></filter><mask id="c" x="0" y="0" width="40" height="1300" fill="#fff"><use xlink:href="#a"/></mask></defs><g fill="none" fill-rule="evenodd"><g transform="translate(-12 -144)"><use fill="#000" filter="url(#b)" xlink:href="#a"/><use stroke="#D8E3EA" mask="url(#c)" stroke-width="2" fill="#E8F4FB" xlink:href="#a"/></g><path d="M10.42 9.7l2.4-2.4V2c0-1.1-.9-2-2-2H7.18c-1.1 0-2 .9-2 2v5.3l2.4 2.4h2.84zM12.8 11h-.26c-1.32 1.34-2.14 2.16-3.54 3.56l-3.54-3.54H5.2C2.32 11 0 13.34 0 16.2v1.4l.4.4h17.2l.4-.4v-1.4c0-2.86-2.32-5.2-5.2-5.2z" fill-rule="nonzero" fill="#0A2F5D"/></g></svg>