<svg width="16" height="24" viewBox="0 0 16 24" xmlns="http://www.w3.org/2000/svg" xmlns:xlink="http://www.w3.org/1999/xlink"><title>F8E56F77-2B9F-4002-AE7F-9438D195088D</title><defs><rect id="a" width="40" height="1300" rx="3"/><filter x="-50%" y="-50%" width="200%" height="200%" filterUnits="objectBoundingBox" id="b"><feOffset dy="1" in="SourceAlpha" result="shadowOffsetOuter1"/><feGaussianBlur stdDeviation="1.5" in="shadowOffsetOuter1" result="shadowBlurOuter1"/><feComposite in="shadowBlurOuter1" in2="SourceAlpha" operator="out" result="shadowBlurOuter1"/><feColorMatrix values="0 0 0 0 0.784313725 0 0 0 0 0.784313725 0 0 0 0 0.784313725 0 0 0 1 0" in="shadowBlurOuter1"/></filter><mask id="c" x="0" y="0" width="40" height="1300" fill="#fff"><use xlink:href="#a"/></mask></defs><g fill="none" fill-rule="evenodd"><g transform="translate(-12 -313)"><use fill="#000" filter="url(#b)" xlink:href="#a"/><use stroke="#D8E3EA" mask="url(#c)" stroke-width="2" fill="#E8F4FB" xlink:href="#a"/></g><g fill-rule="nonzero" fill="#0A2F5D"><path d="M6.867 23.651c0 .465-1.663.465-1.663 0L.06 1.175C.059.71.43.333.89.333c.46 0 .832.377.832.842l5.145 22.476zM13.783.134l2.158 9.44a4.52 4.52 0 0 0-6.45-.052A4.518 4.518 0 0 1 5.2 10.748l-2.158-9.42a4.519 4.519 0 0 0 6.45 0A4.518 4.518 0 0 1 13.783.134z"/></g></g></svg>