<svg width="18" height="17" viewBox="0 0 18 17" xmlns="http://www.w3.org/2000/svg" xmlns:xlink="http://www.w3.org/1999/xlink"><title>738B2AC0-647C-4655-8AD7-376829B9BC74</title><defs><rect id="a" width="40" height="1300" rx="3"/><filter x="-50%" y="-50%" width="200%" height="200%" filterUnits="objectBoundingBox" id="b"><feOffset dy="1" in="SourceAlpha" result="shadowOffsetOuter1"/><feGaussianBlur stdDeviation="1.5" in="shadowOffsetOuter1" result="shadowBlurOuter1"/><feComposite in="shadowBlurOuter1" in2="SourceAlpha" operator="out" result="shadowBlurOuter1"/><feColorMatrix values="0 0 0 0 0.784313725 0 0 0 0 0.784313725 0 0 0 0 0.784313725 0 0 0 1 0" in="shadowBlurOuter1"/></filter><mask id="c" x="0" y="0" width="40" height="1300" fill="#fff"><use xlink:href="#a"/></mask></defs><g fill="none" fill-rule="evenodd"><g transform="translate(-11 -565)"><use fill="#000" filter="url(#b)" xlink:href="#a"/><use stroke="#D8E3EA" mask="url(#c)" stroke-width="2" fill="#E8F4FB" xlink:href="#a"/></g><path d="M16.47 1.798A5.108 5.108 0 0 0 12.737.226a5.221 5.221 0 0 0-3.744 1.607L4.38 6.586 1.184 9.878c-1.554 1.6-1.581 4.177-.063 5.742a3.782 3.782 0 0 0 2.73 1.155 3.958 3.958 0 0 0 2.843-1.22l5.83-6.006.001-.002 2.01-2.07a2.922 2.922 0 0 0 .825-2.009 2.803 2.803 0 0 0-.784-2.006c-1.063-1.095-2.81-1.077-3.898.042l-7.045 7.259a.568.568 0 0 0 0 .787.531.531 0 0 0 .764 0l7.045-7.26c.665-.685 1.728-.704 2.37-.042.308.317.474.745.468 1.205a1.801 1.801 0 0 1-.508 1.237L11.69 8.835l-.001.002-5.759 5.932c-1.132 1.167-2.947 1.195-4.046.064-1.098-1.131-1.07-3.002.063-4.169l.36-.37.001-.002L9.756 2.62a4.162 4.162 0 0 1 2.985-1.282c1.125.008 2.18.437 2.967 1.246 1.63 1.681 1.615 4.433-.035 6.133l-6.126 6.31a.567.567 0 0 0 0 .787.53.53 0 0 0 .764 0l6.125-6.311c2.072-2.134 2.087-5.59.035-7.705z" fill-rule="nonzero" fill="#0A2F5D"/></g></svg>