<svg width="18" height="20" viewBox="0 0 18 20" xmlns="http://www.w3.org/2000/svg" xmlns:xlink="http://www.w3.org/1999/xlink"><title>DECE13A7-34CF-4087-B920-632B1A6D2832</title><defs><rect id="a" width="40" height="1300" rx="3"/><filter x="-50%" y="-50%" width="200%" height="200%" filterUnits="objectBoundingBox" id="b"><feOffset dy="1" in="SourceAlpha" result="shadowOffsetOuter1"/><feGaussianBlur stdDeviation="1.5" in="shadowOffsetOuter1" result="shadowBlurOuter1"/><feComposite in="shadowBlurOuter1" in2="SourceAlpha" operator="out" result="shadowBlurOuter1"/><feColorMatrix values="0 0 0 0 0.784313725 0 0 0 0 0.784313725 0 0 0 0 0.784313725 0 0 0 1 0" in="shadowBlurOuter1"/></filter><mask id="c" x="0" y="0" width="40" height="1300" fill="#fff"><use xlink:href="#a"/></mask></defs><g fill="none" fill-rule="evenodd"><g transform="translate(-12 -227)"><use fill="#000" filter="url(#b)" xlink:href="#a"/><use stroke="#D8E3EA" mask="url(#c)" stroke-width="2" fill="#E8F4FB" xlink:href="#a"/></g><g fill-rule="nonzero" fill="#0A2F5D"><path d="M0 6.4v11.981C0 19.275.698 20 1.558 20h14.026c.861 0 1.559-.725 1.559-1.619V6.4H0zm4.286 12.4H1.169v-3.2h3.117v3.2zm0-4H1.169v-3.2h3.117v3.2zm0-4H1.169V7.6h3.117v3.2zm3.896 8H5.065v-3.2h3.117v3.2zm0-4H5.065v-3.2h3.117v3.2zm0-4H5.065V7.6h3.117v3.2zm3.896 8H8.96v-3.2h3.117v3.2zm0-4H8.96v-3.2h3.117v3.2zm0-4H8.96V7.6h3.117v3.2zm3.896 8h-3.117v-3.2h3.117v3.2zm0-4h-3.117v-3.2h3.117v3.2zm0-4h-3.117V7.6h3.117v3.2zM15.584 2.4h-2.532V.6c0-.331-.262-.6-.584-.6a.592.592 0 0 0-.585.6v1.8H5.26V.6c0-.331-.262-.6-.585-.6a.592.592 0 0 0-.584.6v1.8H1.558C.698 2.4 0 3.125 0 4.019V5.6h17.143V4.019c0-.894-.698-1.619-1.559-1.619zM4.675 5.2c-.645 0-1.169-.537-1.169-1.2 0-.444.236-.83.585-1.038V4c0 .331.262.6.584.6A.592.592 0 0 0 5.26 4V2.962c.349.207.584.594.584 1.038 0 .663-.523 1.2-1.169 1.2zm7.793 0c-.646 0-1.17-.537-1.17-1.2 0-.444.236-.83.585-1.038V4c0 .331.262.6.585.6a.592.592 0 0 0 .584-.6V2.962c.349.207.584.594.584 1.038 0 .663-.523 1.2-1.168 1.2z"/></g></g></svg>