<svg width="23" height="10" viewBox="0 0 23 10" xmlns="http://www.w3.org/2000/svg" xmlns:xlink="http://www.w3.org/1999/xlink"><title>8743BA36-F8F4-4937-86BF-E334DC978488</title><defs><rect id="a" width="40" height="1300" rx="3"/><filter x="-50%" y="-50%" width="200%" height="200%" filterUnits="objectBoundingBox" id="b"><feOffset dy="1" in="SourceAlpha" result="shadowOffsetOuter1"/><feGaussianBlur stdDeviation="1.5" in="shadowOffsetOuter1" result="shadowBlurOuter1"/><feComposite in="shadowBlurOuter1" in2="SourceAlpha" operator="out" result="shadowBlurOuter1"/><feColorMatrix values="0 0 0 0 0.784313725 0 0 0 0 0.784313725 0 0 0 0 0.784313725 0 0 0 1 0" in="shadowBlurOuter1"/></filter><mask id="c" x="0" y="0" width="40" height="1300" fill="#fff"><use xlink:href="#a"/></mask></defs><g fill="none" fill-rule="evenodd"><g transform="translate(-8 -63)"><use fill="#000" filter="url(#b)" xlink:href="#a"/><use stroke="#D8E3EA" mask="url(#c)" stroke-width="2" fill="#E8F4FB" xlink:href="#a"/></g><path d="M2.013 4.477l2.265-2.265.896.896c.391.376.809.713 1.254 1.012.39.253.79.483 1.195.69.522.253 1.047.464 1.575.632.683.207 1.36.334 2.035.38h.472c.283-.03.582-.07.897-.115a9.359 9.359 0 0 0 1.644-.403c.881-.314 1.736-.77 2.564-1.368a15.028 15.028 0 0 0 2.219-1.885L20.96 4.2m-4.15-.265l1.655 2.311M6.428 4.12L4.68 6.523m4.518-1.08L8.21 7.89m6.036-2.587l1.322 2.518m-3.863-2l.023 2.782" stroke-linecap="round" stroke-width="2.5" stroke="#0A2F5D" stroke-linejoin="round"/></g></svg>