<svg width="17" height="20" viewBox="0 0 17 20" xmlns="http://www.w3.org/2000/svg" xmlns:xlink="http://www.w3.org/1999/xlink"><title>98F7BB7B-2157-4726-B21A-37D0A37F9B35</title><defs><rect id="a" width="40" height="1300" rx="3"/><filter x="-50%" y="-50%" width="200%" height="200%" filterUnits="objectBoundingBox" id="b"><feOffset dy="1" in="SourceAlpha" result="shadowOffsetOuter1"/><feGaussianBlur stdDeviation="1.5" in="shadowOffsetOuter1" result="shadowBlurOuter1"/><feComposite in="shadowBlurOuter1" in2="SourceAlpha" operator="out" result="shadowBlurOuter1"/><feColorMatrix values="0 0 0 0 0.784313725 0 0 0 0 0.784313725 0 0 0 0 0.784313725 0 0 0 1 0" in="shadowBlurOuter1"/></filter><mask id="c" x="0" y="0" width="40" height="1300" fill="#fff"><use xlink:href="#a"/></mask></defs><g fill="none" fill-rule="evenodd"><g transform="translate(-12 -485)"><use fill="#000" filter="url(#b)" xlink:href="#a"/><use stroke="#D8E3EA" mask="url(#c)" stroke-width="2" fill="#E8F4FB" xlink:href="#a"/></g><path d="M15.455 2.273h-1.819V.818a.391.391 0 0 0-.363-.363h-1.091a.391.391 0 0 0-.364.363v1.455H9.091V.818a.391.391 0 0 0-.364-.363h-1.09a.391.391 0 0 0-.364.363v1.455H4.545V.818a.391.391 0 0 0-.363-.363H3.09a.391.391 0 0 0-.364.363v1.455H.91c-.545 0-.909.363-.909.909v15.454c0 .546.364.91.91.91h14.545c.545 0 .909-.364.909-.91V3.182c0-.546-.364-.91-.91-.91zm-7.273 15.09a.391.391 0 0 1-.364.364H2.182a.391.391 0 0 1-.364-.363v-1.091c0-.182.182-.364.364-.364h5.636c.182 0 .364.182.364.364v1.09zm6.363-3.636a.391.391 0 0 1-.363.364h-12a.391.391 0 0 1-.364-.364v-1.09c0-.182.182-.364.364-.364h12c.182 0 .363.182.363.363v1.091zm0-3.636a.391.391 0 0 1-.363.364h-12a.391.391 0 0 1-.364-.364V9c0-.182.182-.364.364-.364h12c.182 0 .363.182.363.364v1.09zm0-3.636a.391.391 0 0 1-.363.363h-12a.391.391 0 0 1-.364-.363V5.364C1.818 5.182 2 5 2.182 5h12c.182 0 .363.182.363.364v1.09z" fill-rule="nonzero" fill="#0A2F5D"/></g></svg>